<mxfile host="app.diagrams.net" agent="Mozilla/5.0 (Windows NT 10.0; Win64; x64) AppleWebKit/537.36 (KHTML, like Gecko) Chrome/131.0.0.0 Safari/537.36" version="25.0.3">
  <diagram id="C5RBs43oDa-KdzZeNtuy" name="Page-1">
    <mxGraphModel dx="1050" dy="557" grid="1" gridSize="10" guides="1" tooltips="1" connect="1" arrows="1" fold="1" page="1" pageScale="1" pageWidth="827" pageHeight="1169" math="0" shadow="0">
      <root>
        <mxCell id="WIyWlLk6GJQsqaUBKTNV-0" />
        <mxCell id="WIyWlLk6GJQsqaUBKTNV-1" parent="WIyWlLk6GJQsqaUBKTNV-0" />
        <mxCell id="HuKBehrSy9Hnc6WIseey-2" value="" style="edgeStyle=orthogonalEdgeStyle;rounded=0;orthogonalLoop=1;jettySize=auto;html=1;" edge="1" parent="WIyWlLk6GJQsqaUBKTNV-1" source="HuKBehrSy9Hnc6WIseey-0" target="HuKBehrSy9Hnc6WIseey-1">
          <mxGeometry relative="1" as="geometry" />
        </mxCell>
        <mxCell id="HuKBehrSy9Hnc6WIseey-0" value="Start" style="ellipse;whiteSpace=wrap;html=1;" vertex="1" parent="WIyWlLk6GJQsqaUBKTNV-1">
          <mxGeometry x="340" width="120" height="80" as="geometry" />
        </mxCell>
        <mxCell id="HuKBehrSy9Hnc6WIseey-4" value="" style="edgeStyle=orthogonalEdgeStyle;rounded=0;orthogonalLoop=1;jettySize=auto;html=1;" edge="1" parent="WIyWlLk6GJQsqaUBKTNV-1" source="HuKBehrSy9Hnc6WIseey-1" target="HuKBehrSy9Hnc6WIseey-3">
          <mxGeometry relative="1" as="geometry" />
        </mxCell>
        <mxCell id="HuKBehrSy9Hnc6WIseey-1" value="a,operation,b" style="rounded=0;whiteSpace=wrap;html=1;" vertex="1" parent="WIyWlLk6GJQsqaUBKTNV-1">
          <mxGeometry x="340" y="140" width="120" height="60" as="geometry" />
        </mxCell>
        <mxCell id="HuKBehrSy9Hnc6WIseey-6" value="" style="edgeStyle=orthogonalEdgeStyle;rounded=0;orthogonalLoop=1;jettySize=auto;html=1;" edge="1" parent="WIyWlLk6GJQsqaUBKTNV-1" source="HuKBehrSy9Hnc6WIseey-3" target="HuKBehrSy9Hnc6WIseey-5">
          <mxGeometry relative="1" as="geometry" />
        </mxCell>
        <mxCell id="HuKBehrSy9Hnc6WIseey-3" value="a,operation,b" style="shape=parallelogram;perimeter=parallelogramPerimeter;whiteSpace=wrap;html=1;fixedSize=1;" vertex="1" parent="WIyWlLk6GJQsqaUBKTNV-1">
          <mxGeometry x="340" y="260" width="120" height="60" as="geometry" />
        </mxCell>
        <mxCell id="HuKBehrSy9Hnc6WIseey-10" value="FALSE" style="edgeStyle=orthogonalEdgeStyle;rounded=0;orthogonalLoop=1;jettySize=auto;html=1;" edge="1" parent="WIyWlLk6GJQsqaUBKTNV-1" source="HuKBehrSy9Hnc6WIseey-5" target="HuKBehrSy9Hnc6WIseey-7">
          <mxGeometry relative="1" as="geometry" />
        </mxCell>
        <mxCell id="HuKBehrSy9Hnc6WIseey-17" value="TRUE" style="edgeStyle=orthogonalEdgeStyle;rounded=0;orthogonalLoop=1;jettySize=auto;html=1;exitX=1;exitY=0.5;exitDx=0;exitDy=0;" edge="1" parent="WIyWlLk6GJQsqaUBKTNV-1" source="HuKBehrSy9Hnc6WIseey-5" target="HuKBehrSy9Hnc6WIseey-13">
          <mxGeometry relative="1" as="geometry" />
        </mxCell>
        <mxCell id="HuKBehrSy9Hnc6WIseey-5" value="operation == 43" style="rhombus;whiteSpace=wrap;html=1;" vertex="1" parent="WIyWlLk6GJQsqaUBKTNV-1">
          <mxGeometry x="300" y="380" width="200" height="80" as="geometry" />
        </mxCell>
        <mxCell id="HuKBehrSy9Hnc6WIseey-11" value="FALSE" style="edgeStyle=orthogonalEdgeStyle;rounded=0;orthogonalLoop=1;jettySize=auto;html=1;" edge="1" parent="WIyWlLk6GJQsqaUBKTNV-1" source="HuKBehrSy9Hnc6WIseey-7" target="HuKBehrSy9Hnc6WIseey-8">
          <mxGeometry relative="1" as="geometry" />
        </mxCell>
        <mxCell id="HuKBehrSy9Hnc6WIseey-18" value="TRUE" style="edgeStyle=orthogonalEdgeStyle;rounded=0;orthogonalLoop=1;jettySize=auto;html=1;exitX=1;exitY=0.5;exitDx=0;exitDy=0;" edge="1" parent="WIyWlLk6GJQsqaUBKTNV-1" source="HuKBehrSy9Hnc6WIseey-7" target="HuKBehrSy9Hnc6WIseey-14">
          <mxGeometry relative="1" as="geometry" />
        </mxCell>
        <mxCell id="HuKBehrSy9Hnc6WIseey-7" value="operation == 45" style="rhombus;whiteSpace=wrap;html=1;" vertex="1" parent="WIyWlLk6GJQsqaUBKTNV-1">
          <mxGeometry x="300" y="505" width="200" height="80" as="geometry" />
        </mxCell>
        <mxCell id="HuKBehrSy9Hnc6WIseey-12" value="FALSE" style="edgeStyle=orthogonalEdgeStyle;rounded=0;orthogonalLoop=1;jettySize=auto;html=1;" edge="1" parent="WIyWlLk6GJQsqaUBKTNV-1" source="HuKBehrSy9Hnc6WIseey-8" target="HuKBehrSy9Hnc6WIseey-9">
          <mxGeometry relative="1" as="geometry" />
        </mxCell>
        <mxCell id="HuKBehrSy9Hnc6WIseey-19" value="TRUE" style="edgeStyle=orthogonalEdgeStyle;rounded=0;orthogonalLoop=1;jettySize=auto;html=1;exitX=1;exitY=0.5;exitDx=0;exitDy=0;entryX=0;entryY=0.5;entryDx=0;entryDy=0;" edge="1" parent="WIyWlLk6GJQsqaUBKTNV-1" source="HuKBehrSy9Hnc6WIseey-8" target="HuKBehrSy9Hnc6WIseey-15">
          <mxGeometry relative="1" as="geometry" />
        </mxCell>
        <mxCell id="HuKBehrSy9Hnc6WIseey-8" value="operation == 42" style="rhombus;whiteSpace=wrap;html=1;" vertex="1" parent="WIyWlLk6GJQsqaUBKTNV-1">
          <mxGeometry x="300" y="640" width="200" height="80" as="geometry" />
        </mxCell>
        <mxCell id="HuKBehrSy9Hnc6WIseey-20" value="TRUE" style="edgeStyle=orthogonalEdgeStyle;rounded=0;orthogonalLoop=1;jettySize=auto;html=1;entryX=0;entryY=0.5;entryDx=0;entryDy=0;" edge="1" parent="WIyWlLk6GJQsqaUBKTNV-1" source="HuKBehrSy9Hnc6WIseey-9" target="HuKBehrSy9Hnc6WIseey-16">
          <mxGeometry relative="1" as="geometry" />
        </mxCell>
        <mxCell id="HuKBehrSy9Hnc6WIseey-26" value="" style="edgeStyle=orthogonalEdgeStyle;rounded=0;orthogonalLoop=1;jettySize=auto;html=1;" edge="1" parent="WIyWlLk6GJQsqaUBKTNV-1" source="HuKBehrSy9Hnc6WIseey-9" target="HuKBehrSy9Hnc6WIseey-21">
          <mxGeometry relative="1" as="geometry" />
        </mxCell>
        <mxCell id="HuKBehrSy9Hnc6WIseey-9" value="operation == 47" style="rhombus;whiteSpace=wrap;html=1;" vertex="1" parent="WIyWlLk6GJQsqaUBKTNV-1">
          <mxGeometry x="300" y="780" width="200" height="80" as="geometry" />
        </mxCell>
        <mxCell id="HuKBehrSy9Hnc6WIseey-22" style="edgeStyle=orthogonalEdgeStyle;rounded=0;orthogonalLoop=1;jettySize=auto;html=1;exitX=1;exitY=0.5;exitDx=0;exitDy=0;entryX=1;entryY=0.5;entryDx=0;entryDy=0;" edge="1" parent="WIyWlLk6GJQsqaUBKTNV-1" source="HuKBehrSy9Hnc6WIseey-13" target="HuKBehrSy9Hnc6WIseey-21">
          <mxGeometry relative="1" as="geometry">
            <Array as="points">
              <mxPoint x="800" y="420" />
              <mxPoint x="800" y="980" />
              <mxPoint x="460" y="980" />
            </Array>
          </mxGeometry>
        </mxCell>
        <mxCell id="HuKBehrSy9Hnc6WIseey-13" value="a&amp;nbsp; + b" style="shape=parallelogram;perimeter=parallelogramPerimeter;whiteSpace=wrap;html=1;fixedSize=1;" vertex="1" parent="WIyWlLk6GJQsqaUBKTNV-1">
          <mxGeometry x="600" y="390" width="120" height="60" as="geometry" />
        </mxCell>
        <mxCell id="HuKBehrSy9Hnc6WIseey-23" style="edgeStyle=orthogonalEdgeStyle;rounded=0;orthogonalLoop=1;jettySize=auto;html=1;exitX=1;exitY=0.5;exitDx=0;exitDy=0;endArrow=none;endFill=0;" edge="1" parent="WIyWlLk6GJQsqaUBKTNV-1" source="HuKBehrSy9Hnc6WIseey-14">
          <mxGeometry relative="1" as="geometry">
            <mxPoint x="800" y="545" as="targetPoint" />
          </mxGeometry>
        </mxCell>
        <mxCell id="HuKBehrSy9Hnc6WIseey-14" value="a&amp;nbsp; - b" style="shape=parallelogram;perimeter=parallelogramPerimeter;whiteSpace=wrap;html=1;fixedSize=1;" vertex="1" parent="WIyWlLk6GJQsqaUBKTNV-1">
          <mxGeometry x="600" y="515" width="120" height="60" as="geometry" />
        </mxCell>
        <mxCell id="HuKBehrSy9Hnc6WIseey-24" style="edgeStyle=orthogonalEdgeStyle;rounded=0;orthogonalLoop=1;jettySize=auto;html=1;exitX=1;exitY=0.5;exitDx=0;exitDy=0;endArrow=none;endFill=0;" edge="1" parent="WIyWlLk6GJQsqaUBKTNV-1" source="HuKBehrSy9Hnc6WIseey-15">
          <mxGeometry relative="1" as="geometry">
            <mxPoint x="800" y="680" as="targetPoint" />
          </mxGeometry>
        </mxCell>
        <mxCell id="HuKBehrSy9Hnc6WIseey-15" value="a&amp;nbsp; * b" style="shape=parallelogram;perimeter=parallelogramPerimeter;whiteSpace=wrap;html=1;fixedSize=1;" vertex="1" parent="WIyWlLk6GJQsqaUBKTNV-1">
          <mxGeometry x="600" y="650" width="120" height="60" as="geometry" />
        </mxCell>
        <mxCell id="HuKBehrSy9Hnc6WIseey-25" style="edgeStyle=orthogonalEdgeStyle;rounded=0;orthogonalLoop=1;jettySize=auto;html=1;exitX=1;exitY=0.5;exitDx=0;exitDy=0;endArrow=none;endFill=0;" edge="1" parent="WIyWlLk6GJQsqaUBKTNV-1" source="HuKBehrSy9Hnc6WIseey-16">
          <mxGeometry relative="1" as="geometry">
            <mxPoint x="800" y="820" as="targetPoint" />
          </mxGeometry>
        </mxCell>
        <mxCell id="HuKBehrSy9Hnc6WIseey-16" value="a&amp;nbsp; / b" style="shape=parallelogram;perimeter=parallelogramPerimeter;whiteSpace=wrap;html=1;fixedSize=1;" vertex="1" parent="WIyWlLk6GJQsqaUBKTNV-1">
          <mxGeometry x="600" y="790" width="120" height="60" as="geometry" />
        </mxCell>
        <mxCell id="HuKBehrSy9Hnc6WIseey-21" value="End" style="ellipse;whiteSpace=wrap;html=1;" vertex="1" parent="WIyWlLk6GJQsqaUBKTNV-1">
          <mxGeometry x="340" y="940" width="120" height="80" as="geometry" />
        </mxCell>
      </root>
    </mxGraphModel>
  </diagram>
</mxfile>
